<svg width="26" height="15" viewBox="0 0 26 15" fill="none" xmlns="http://www.w3.org/2000/svg">
<path d="M16.477 4.58678C16.0368 4.42854 16.1663 3.81785 16.3341 3.96495C16.5023 4.11205 16.5802 4.26986 17.0195 4.25914C17.4592 4.24799 19.5287 3.68191 19.6186 3.99883C19.7089 4.31575 20.7174 4.64339 20.5362 4.41867C20.3561 4.19396 20.4588 4.03271 20.6266 3.81786C20.7943 3.60257 20.9497 3.47735 20.3561 3.40959C19.7605 3.34226 19.6057 3.54554 19.5923 3.64717C19.5794 3.74967 17.6661 3.95294 17.3292 3.99883C16.9941 4.04343 16.9162 4.05544 16.8254 3.94222C16.7356 3.82901 16.7475 3.52281 15.5584 3.52281C14.3692 3.52281 14.6923 3.9984 14.8343 4.15751C14.9762 4.31532 14.5499 4.38394 13.8392 4.46242C13.1275 4.54218 6.41749 5.44792 6.14601 5.47022C5.87405 5.49294 5.1901 5.10827 4.81443 5.2901C4.43971 5.47022 4.63328 5.70866 4.19309 5.76484C4 5.78928 1.48357 6.11564 1.09117 6.1731C-0.17732 6.35622 2.16131 6.26788 2.94993 6.20055C3.73855 6.13193 5.03429 6.16753 5.29334 5.94109C5.55239 5.71466 5.97347 5.791 6.34914 5.79829C6.7229 5.80515 14.3821 4.60994 14.8213 4.54261C15.2615 4.47485 15.2615 4.93887 15.675 5.04094C16.0889 5.14215 16.9162 4.74589 16.477 4.58678ZM8.67343 7.01193C7.52873 6.74862 5.91611 7.19805 5.40279 8.5009C5.2747 8.82554 5.21209 9.20293 5.24602 9.6365C5.41761 11.8125 9.1012 11.1375 9.78658 9.6365C10.2693 8.58153 10.3123 7.90437 9.73735 7.46008C9.49503 7.27268 9.15568 7.12301 8.67343 7.01193ZM16.4827 7.82032C16.1567 8.24874 16.01 8.72948 16.2246 9.22866C16.5415 9.96371 17.5428 10.3981 18.5848 10.3981C20.0368 10.3981 21.5782 8.95763 21.2006 8.23416C20.1816 6.28203 17.0586 7.06468 16.4827 7.82032ZM11.1124 12.8966C10.9074 13.8084 11.9197 14.2295 12.9616 14.2295C14.4137 14.2295 15.4867 13.3594 15.1096 12.6359C14.0901 10.6842 11.3619 11.7889 11.1124 12.8966ZM4.34747 12.6933C3.14302 12.6933 2.2526 13.3962 2.56566 13.9795C3.41163 15.5551 5.67427 14.6639 5.8817 13.7693C6.05185 13.0339 5.21209 12.6933 4.34747 12.6933ZM24.0927 10.2382C22.9642 10.2382 22.1297 11.1057 22.4227 11.8266C23.2152 13.7715 25.3363 12.671 25.5304 11.5672C25.6895 10.6584 24.9023 10.2382 24.0927 10.2382ZM25.1375 5.30597C24.6146 4.31618 22.0915 4.37536 21.8415 5.48265C21.636 6.39396 22.6483 6.81595 23.6903 6.81595C25.1423 6.81595 25.5184 6.02729 25.1375 5.30597ZM19.4322 2.67454C20.8842 2.67454 22.0399 2.46698 21.659 1.74522C21.1361 0.755434 18.8438 0.776447 18.0036 1.7122C17.354 2.43653 18.3907 2.67454 19.4322 2.67454ZM9.41569 4.17166C10.8677 4.17166 12.0239 3.96409 11.643 3.24234C11.1201 2.25255 8.82733 2.27356 7.98756 3.20932C7.33755 3.93365 8.37423 4.17166 9.41569 4.17166ZM13.6198 1.51278C15.0718 1.51278 15.9445 1.21902 15.4121 0.579177C14.7401 -0.229635 13.1996 0.0847119 12.1912 0.550872C11.2706 0.976292 12.5778 1.51278 13.6198 1.51278Z" fill="white"/>
</svg>
