<svg width="29" height="29" viewBox="0 0 29 29" fill="none" xmlns="http://www.w3.org/2000/svg">
<path d="M28.091 10.1577C28.0684 8.51694 28.0625 8.07559 27.4893 7.66325L27.4657 7.64648C27.2147 7.45617 26.5654 7.11406 26.2976 6.97631C22.7532 5.08225 18.7766 4.07812 14.8099 4.07812C14.022 4.07812 13.4048 4.11619 12.9961 4.14202C12.8198 4.15289 12.6875 4.16195 12.6037 4.16195C11.6965 4.16195 11.2348 4.46373 10.8732 4.74603C10.8397 4.77231 10.8102 4.79814 10.778 4.81762C10.7527 4.83077 10.7223 4.84028 10.6924 4.85206C10.232 5.02969 9.76803 5.31244 9.49253 6.17156C9.39828 6.46655 8.7417 6.76334 8.48433 6.76334C7.84904 6.76334 7.37598 7.11587 6.95911 7.42672C6.81365 7.53547 6.66322 7.64739 6.50779 7.74481C5.97311 8.07786 5.77917 8.37103 5.65411 8.74939C5.59746 8.74425 5.54061 8.74153 5.48373 8.74123C5.24947 8.74123 5.04239 8.79652 4.86612 8.90527C4.32872 9.03305 4.00473 9.3892 3.76865 10.1015C3.6447 10.0489 3.51137 10.0219 3.3767 10.0222C2.87328 10.0222 2.51395 10.3766 2.19722 10.6892C2.09979 10.7848 1.9992 10.8845 1.92308 10.9448C1.89589 10.9665 1.86779 10.9779 1.78804 11.0078C1.56329 11.0911 0.880888 11.3453 0.922575 12.3345C0.946138 12.8697 0.922122 14.2086 0.922122 14.2222C0.922122 14.8752 1.64168 15.2445 1.64304 15.703C1.64395 15.9536 1.01773 15.9491 1.01773 17.1259C1.01773 17.4245 1.03767 20.0644 1.03767 20.3761C1.03767 21.2887 1.87686 21.6834 1.4627 21.7319C0.957919 21.7917 0.88406 22.7772 0.912606 23.5435C0.917138 23.6558 0.921216 23.7587 0.921216 23.8403C0.92031 24.5503 1.42917 24.9219 1.93214 24.9219C2.13514 24.9219 2.31095 24.8666 2.45187 24.8217C2.50262 24.8059 2.5792 24.7819 2.6082 24.7782C2.84609 24.747 7.89934 24.0057 8.28676 23.9182C8.63386 23.8403 8.70319 23.1035 9.4019 22.9943C9.82693 22.9281 10.0857 23.606 10.5837 23.606C10.6874 23.606 15.979 22.7908 16.6311 22.6866C17.5808 22.5344 17.2092 21.9843 17.7208 21.9512C18.0081 21.9326 18.488 22.3123 18.9805 22.3123C19.1885 22.3123 19.4377 22.2856 19.8401 22.2208C20.6983 22.0812 26.6052 21.1904 26.6651 21.1813C26.7212 21.1718 26.7561 21.1682 26.7879 21.1646C27.9701 21.0295 27.9701 20.0055 27.9701 19.3937C27.9701 18.7902 27.9945 17.4014 28.0208 15.9301C28.0611 13.722 28.1051 11.2203 28.091 10.1577ZM27.1209 19.3933C27.1209 20.406 26.9514 20.2687 26.5395 20.3394C26.5395 20.3394 20.5778 21.2384 19.7055 21.3812C19.3702 21.4351 19.1459 21.4618 18.9814 21.4618C18.9275 21.4618 18.8831 21.4568 18.84 21.4514C18.386 21.349 18.6502 20.5166 17.7485 20.6897C16.7584 20.8795 16.6306 21.8497 16.6288 21.866C16.549 21.9023 16.4213 21.9204 16.1426 21.9489C15.4457 22.0187 11.9648 22.5538 11.1741 22.6775C11.0245 22.6214 10.8292 22.5054 10.5746 22.2851C9.72408 21.5515 8.77659 21.5515 8.44989 22.1574C8.12273 22.7632 7.96822 22.9331 7.63562 23.1782C7.3207 23.2498 2.8615 23.8878 2.49854 23.9354C2.28558 23.9631 2.07261 24.0723 1.93214 24.0723C1.8329 24.0723 1.77037 24.0174 1.77037 23.8407C1.77037 23.4827 1.70739 22.7713 1.81478 22.4922C2.00192 22.3866 2.53933 22.581 2.56606 21.8665C2.59914 21.0028 1.91809 20.3566 1.91447 20.353C1.88183 20.1374 1.86638 19.9195 1.86825 19.7014C1.86825 18.5686 1.83562 17.4304 1.89679 17.0094C2.05493 16.6795 2.40747 16.6745 2.79489 16.3202C3.3187 15.8403 3.35042 14.8204 2.56787 14.7533C2.21353 14.722 2.01778 14.659 1.90359 14.5979C1.81569 14.4989 1.76843 14.3704 1.77128 14.2381C1.77128 14.2381 1.7962 12.8656 1.77128 12.2992C1.74726 11.731 2.06264 11.9204 2.45006 11.6127C2.77812 11.353 3.14017 10.8741 3.37625 10.8736C3.41929 10.8736 3.45826 10.89 3.49225 10.9267C3.59692 11.0404 3.77454 11.1759 3.96304 11.1759C4.16695 11.1759 4.38309 11.0173 4.53398 10.5012C4.82534 9.50747 5.06731 9.83825 5.28572 9.64975C5.33601 9.60625 5.40489 9.59311 5.48373 9.59311C5.60743 9.59311 5.75606 9.62619 5.89834 9.62619C6.05603 9.62619 6.20556 9.58541 6.30389 9.41322C6.54722 8.98773 6.35192 8.84591 6.9582 8.468C7.46797 8.14945 7.84089 7.77019 8.24915 7.656C8.75529 7.79783 9.32714 8.05656 10.4377 6.97223C10.9756 6.44706 10.1156 6.52364 10.5886 5.90014C10.7871 5.68762 11.0087 5.66678 11.1995 5.55848C11.4904 5.39309 11.7083 5.01428 12.6046 5.01428C12.8896 5.01428 13.6685 4.93045 14.8109 4.93045C15.7389 4.93045 16.9115 4.98891 18.2523 5.19009C18.6139 5.28978 23.1058 6.53905 24.9214 7.61794C26.1829 8.3665 26.2495 8.47208 26.086 8.70544C25.9224 8.9397 25.5214 8.90889 22.4079 9.57272C21.8275 9.69552 21.3957 9.73131 21.4111 9.87495C21.4274 10.0186 22.3101 9.79611 23.2254 9.72361C24.1402 9.65156 26.8042 9.09377 27.0004 9.33256C27.0996 9.45355 27.2306 10.4101 27.2437 11.064C27.2297 13.427 27.1209 18.0942 27.1209 19.3933Z" fill="black"/>
<path d="M16.9976 10.9229C16.5803 10.7557 16.7031 10.1104 16.8621 10.2658C17.0216 10.4213 17.0955 10.588 17.5119 10.5767C17.9288 10.5649 19.8908 9.96679 19.976 10.3016C20.0616 10.6365 21.0177 10.9827 20.846 10.7453C20.6752 10.5078 20.7726 10.3374 20.9316 10.1104C21.0907 9.88296 21.238 9.75065 20.6752 9.67905C20.1106 9.60791 19.9638 9.82269 19.9511 9.93008C19.9389 10.0384 18.125 10.2532 17.8055 10.3016C17.4879 10.3488 17.414 10.3615 17.3279 10.2418C17.2428 10.1222 17.2541 9.79868 16.1267 9.79868C14.9993 9.79868 15.3056 10.3012 15.4402 10.4693C15.5748 10.6361 15.1706 10.7086 14.4968 10.7915C13.8221 10.8758 7.46069 11.8328 7.20332 11.8563C6.94549 11.8803 6.29707 11.4739 5.94091 11.666C5.58566 11.8563 5.76918 12.1083 5.35185 12.1676C5.16879 12.1934 2.78309 12.5383 2.41107 12.599C1.20848 12.7925 3.42562 12.6991 4.17327 12.628C4.92093 12.5555 6.14935 12.5931 6.39494 12.3538C6.64054 12.1146 7.03974 12.1953 7.3959 12.203C7.75024 12.2102 15.0116 10.9473 15.428 10.8762C15.8453 10.8046 15.8453 11.2949 16.2373 11.4027C16.6297 11.5097 17.414 11.091 16.9976 10.9229ZM9.59944 13.4853C8.51421 13.2071 6.98537 13.682 6.49871 15.0586C6.37727 15.4016 6.31791 15.8003 6.35009 16.2584C6.51276 18.5576 10.005 17.8444 10.6548 16.2584C11.1124 15.1437 11.1532 14.4283 10.6081 13.9588C10.3784 13.7608 10.0566 13.6027 9.59944 13.4853ZM17.0031 14.3394C16.694 14.7921 16.5549 15.3001 16.7584 15.8275C17.0588 16.6042 18.0081 17.0632 18.9959 17.0632C20.3725 17.0632 21.8338 15.5411 21.4759 14.7767C20.5098 12.7141 17.5491 13.541 17.0031 14.3394ZM11.9117 19.7031C11.7174 20.6664 12.6771 21.1114 13.6649 21.1114C15.0415 21.1114 16.0587 20.192 15.7012 19.4276C14.7347 17.3654 12.1483 18.5327 11.9117 19.7031ZM5.49821 19.4883C4.35634 19.4883 3.51216 20.231 3.80896 20.8472C4.61099 22.512 6.75609 21.5704 6.95274 20.6252C7.11405 19.8481 6.31791 19.4883 5.49821 19.4883ZM24.2177 16.8942C23.1479 16.8942 22.3567 17.8108 22.6345 18.5725C23.3858 20.6275 25.3967 19.4647 25.5807 18.2984C25.7316 17.3382 24.9853 16.8942 24.2177 16.8942ZM25.2082 11.6828C24.7125 10.637 22.3205 10.6995 22.0835 11.8695C21.8886 12.8323 22.8484 13.2782 23.8362 13.2782C25.2128 13.2782 25.5694 12.4449 25.2082 11.6828ZM19.7993 8.9024C21.1759 8.9024 22.2715 8.68308 21.9104 7.92047C21.4147 6.87466 19.2415 6.89686 18.4449 7.88558C17.8291 8.65091 18.8119 8.9024 19.7993 8.9024ZM10.3031 10.4843C11.6797 10.4843 12.7759 10.2649 12.4147 9.50233C11.919 8.45652 9.74535 8.47872 8.94921 9.46744C8.33296 10.2328 9.31579 10.4843 10.3031 10.4843ZM14.2888 7.67488C15.6654 7.67488 16.4928 7.36449 15.9881 6.68843C15.351 5.83383 13.8905 6.16597 12.9344 6.65852C12.0617 7.10802 13.301 7.67488 14.2888 7.67488Z" fill="#454444"/>
</svg>
