<svg width="24" height="24" viewBox="0 0 24 24" fill="none" xmlns="http://www.w3.org/2000/svg">
<path d="M8.49074 23.1716L7.93179 19.523C7.70111 19.4504 7.43938 19.3279 7.1466 19.1554C6.85381 18.983 6.60983 18.815 6.41464 18.6517L3.08754 20.2309L0 14.6491L3.03431 12.3891C3.01657 12.2802 3.00326 12.1485 2.99438 11.9943C2.98551 11.84 2.98108 11.7084 2.98108 11.5994C2.98108 11.4905 2.98551 11.3589 2.99438 11.2046C3.00326 11.0503 3.01657 10.9187 3.03431 10.8098L0 8.52259L3.08754 2.99516L6.46787 4.5472C6.64532 4.40198 6.87599 4.24768 7.15991 4.08431C7.44382 3.92094 7.70111 3.80295 7.93179 3.73034L8.49074 0H14.5594L15.1183 3.70311C15.349 3.79387 15.6107 3.9164 15.9035 4.07069C16.1963 4.22499 16.4403 4.38382 16.6355 4.5472L19.9892 2.99516L23.0501 8.52259L19.9892 10.7553C20.0069 10.8824 20.0247 11.0231 20.0424 11.1774C20.0602 11.3317 20.069 11.4724 20.069 11.5994C20.069 11.7265 20.0602 11.8626 20.0424 12.0079C20.0247 12.1531 20.0069 12.2892 19.9892 12.4163L23.0501 14.6491L19.9626 20.2309L16.6089 18.6517C16.4137 18.815 16.1785 18.983 15.9035 19.1554C15.6285 19.3279 15.3667 19.4504 15.1183 19.523L14.5594 23.1716H8.49074ZM11.4718 15.1392C12.43 15.1392 13.2463 14.7943 13.9206 14.1045C14.5949 13.4147 14.932 12.5797 14.932 11.5994C14.932 10.6192 14.5949 9.78419 13.9206 9.09439C13.2463 8.4046 12.43 8.0597 11.4718 8.0597C10.5136 8.0597 9.69737 8.4046 9.02308 9.09439C8.34879 9.78419 8.01164 10.6192 8.01164 11.5994C8.01164 12.5797 8.34879 13.4147 9.02308 14.1045C9.69737 14.7943 10.5136 15.1392 11.4718 15.1392Z" fill="#30363D"/>
</svg>
