<svg width="19" height="17" viewBox="0 0 19 17" fill="none" xmlns="http://www.w3.org/2000/svg">
<path d="M6.99884 17L6.53811 14.3231C6.34796 14.2699 6.13222 14.18 5.89088 14.0535C5.64954 13.9269 5.44842 13.8038 5.28753 13.6839L2.54503 14.8425L0 10.7474L2.50115 9.08931C2.48653 9.0094 2.47556 8.91285 2.46824 8.79965C2.46093 8.68645 2.45727 8.58989 2.45727 8.50999C2.45727 8.43008 2.46093 8.33353 2.46824 8.22033C2.47556 8.10713 2.48653 8.01058 2.50115 7.93067L0 6.25264L2.54503 2.19741L5.33141 3.33608C5.47767 3.22953 5.66782 3.11633 5.90185 2.99647C6.13587 2.87662 6.34796 2.79005 6.53811 2.73678L6.99884 0H12.0012L12.4619 2.7168C12.652 2.78339 12.8678 2.87329 13.1091 2.98649C13.3505 3.09969 13.5516 3.21622 13.7125 3.33608L16.4769 2.19741L19 6.25264L16.4769 7.89072C16.4915 7.98394 16.5062 8.08715 16.5208 8.20035C16.5354 8.31355 16.5427 8.41676 16.5427 8.50999C16.5427 8.60321 16.5354 8.70309 16.5208 8.80964C16.5062 8.91618 16.4915 9.01606 16.4769 9.10928L19 10.7474L16.455 14.8425L13.6905 13.6839C13.5296 13.8038 13.3358 13.9269 13.1091 14.0535C12.8824 14.18 12.6667 14.2699 12.4619 14.3231L12.0012 17H6.99884ZM9.45612 11.1069C10.246 11.1069 10.9188 10.8539 11.4746 10.3478C12.0304 9.84175 12.3083 9.22914 12.3083 8.50999C12.3083 7.79083 12.0304 7.17822 11.4746 6.67215C10.9188 6.16608 10.246 5.91304 9.45612 5.91304C8.66628 5.91304 7.99346 6.16608 7.43764 6.67215C6.88183 7.17822 6.60393 7.79083 6.60393 8.50999C6.60393 9.22914 6.88183 9.84175 7.43764 10.3478C7.99346 10.8539 8.66628 11.1069 9.45612 11.1069Z" fill="white"/>
</svg>
