<svg width="142" height="146" viewBox="0 0 142 146" fill="none" xmlns="http://www.w3.org/2000/svg">
<path d="M71.0003 0.314453C32.042 0.314453 0.166992 32.875 0.166992 72.6713C0.166992 112.468 32.042 145.028 71.0003 145.028C109.959 145.028 141.834 112.468 141.834 72.6713C141.834 32.875 109.959 0.314453 71.0003 0.314453ZM71.0003 130.557C39.7628 130.557 14.3337 104.581 14.3337 72.6713C14.3337 40.7619 39.7628 14.7858 71.0003 14.7858C102.238 14.7858 127.667 40.7619 127.667 72.6713C127.667 104.581 102.238 130.557 71.0003 130.557ZM103.513 40.6896L56.8337 88.3727L38.4878 69.7047L28.5003 79.907L56.8337 108.85L113.5 50.9642L103.513 40.6896Z" fill="#036513"/>
</svg>
