<svg width="145" height="142" viewBox="0 0 145 142" fill="none" xmlns="http://www.w3.org/2000/svg">
<path d="M83.1875 105.125C83.1875 107.202 82.5607 109.232 81.3864 110.958C80.212 112.685 78.5428 114.031 76.59 114.826C74.6371 115.62 72.4882 115.828 70.415 115.423C68.3418 115.018 66.4375 114.018 64.9428 112.55C63.4482 111.081 62.4303 109.21 62.0179 107.173C61.6055 105.137 61.8172 103.025 62.6261 101.107C63.435 99.1882 64.8048 97.5483 66.5624 96.3946C68.3199 95.2408 70.3862 94.625 72.5 94.625C75.3345 94.625 78.0529 95.7312 80.0572 97.7004C82.0615 99.6695 83.1875 102.34 83.1875 105.125ZM144.641 71C144.641 85.0178 140.41 98.7207 132.483 110.376C124.556 122.031 113.289 131.116 100.107 136.48C86.9251 141.844 72.42 143.248 58.4261 140.513C44.4322 137.778 31.578 131.028 21.4889 121.116C11.3999 111.204 4.52913 98.5754 1.74557 84.827C-1.03799 71.0786 0.390633 56.828 5.85079 43.8773C11.3109 30.9266 20.5574 19.8574 32.4208 12.0696C44.2843 4.28175 58.232 0.125 72.5 0.125C91.6264 0.145844 109.963 7.6197 123.488 20.9068C137.012 34.194 144.619 52.2092 144.641 71ZM128.609 71C128.609 60.0973 125.319 49.4394 119.153 40.3742C112.988 31.3089 104.225 24.2434 93.9722 20.0711C83.7195 15.8989 72.4378 14.8072 61.5536 16.9342C50.6695 19.0612 40.6717 24.3114 32.8247 32.0207C24.9777 39.7301 19.6338 49.5524 17.4688 60.2456C15.3038 70.9389 16.4149 82.0226 20.6617 92.0954C24.9085 102.168 32.1002 110.778 41.3273 116.835C50.5545 122.892 61.4026 126.125 72.5 126.125C87.3763 126.109 101.639 120.297 112.158 109.962C122.677 99.6274 128.593 85.6153 128.609 71ZM72.5 29C56.2951 29 43.1094 40.7731 43.1094 55.25V57.875C43.1094 59.9636 43.9539 61.9666 45.4571 63.4435C46.9603 64.9203 48.9992 65.75 51.125 65.75C53.2509 65.75 55.2897 64.9203 56.7929 63.4435C58.2962 61.9666 59.1407 59.9636 59.1407 57.875V55.25C59.1407 49.4619 65.1524 44.75 72.5 44.75C79.8477 44.75 85.8594 49.4619 85.8594 55.25C85.8594 61.0381 79.8477 65.75 72.5 65.75C70.3742 65.75 68.3354 66.5797 66.8321 68.0565C65.3289 69.5334 64.4844 71.5364 64.4844 73.625V78.875C64.4796 80.8206 65.2081 82.6991 66.5294 84.1483C67.8507 85.5975 69.6713 86.5149 71.6403 86.7236C73.6092 86.9322 75.5871 86.4175 77.1926 85.2785C78.7981 84.1394 79.9176 82.4568 80.3353 80.555C92.7462 77.4837 101.891 67.3053 101.891 55.25C101.891 40.7731 88.705 29 72.5 29Z" fill="#40685B"/>
</svg>
