<svg width="18" height="20" viewBox="0 0 18 20" fill="none" xmlns="http://www.w3.org/2000/svg">
<path d="M0.0859375 16.7534V15.3136H2.43521V7.97058C2.43521 6.62675 2.89667 5.4309 3.8196 4.38304C4.74252 3.33517 5.95911 2.67526 7.46935 2.40329V1.70738C7.46935 1.33943 7.62317 1.03547 7.93081 0.795501C8.23846 0.555531 8.60669 0.435547 9.03553 0.435547C9.46436 0.435547 9.8326 0.555531 10.1402 0.795501C10.4479 1.03547 10.6017 1.33943 10.6017 1.70738V2.40329C12.112 2.67526 13.3332 3.33517 14.2654 4.38304C15.1977 5.4309 15.6638 6.62675 15.6638 7.97058V15.3136H17.9851V16.7534H0.0859375ZM9.03553 19.6331C8.43889 19.6331 7.91683 19.4451 7.46935 19.0691C7.02187 18.6932 6.79813 18.2413 6.79813 17.7133H11.2729C11.2729 18.2413 11.0538 18.6932 10.6157 19.0691C10.1775 19.4451 9.65081 19.6331 9.03553 19.6331ZM4.11325 15.3136H13.9858V7.97058C13.9858 6.78673 13.5103 5.77886 12.5594 4.94697C11.6085 4.11507 10.4432 3.69913 9.0635 3.69913C7.68377 3.69913 6.51379 4.11507 5.55358 4.94697C4.59336 5.77886 4.11325 6.78673 4.11325 7.97058V15.3136Z" fill="white"/>
</svg>
