<svg width="24" height="14" viewBox="0 0 24 14" fill="none" xmlns="http://www.w3.org/2000/svg">
<path d="M12 10.6842C13.2268 10.6842 14.2678 10.3266 15.1231 9.61145C15.9784 8.89628 16.406 8.0258 16.406 7C16.406 5.9742 15.9784 5.10371 15.1231 4.38854C14.2678 3.67337 13.2268 3.31579 12 3.31579C10.7732 3.31579 9.73218 3.67337 8.87689 4.38854C8.0216 5.10371 7.59395 5.9742 7.59395 7C7.59395 8.0258 8.0216 8.89628 8.87689 9.61145C9.73218 10.3266 10.7732 10.6842 12 10.6842ZM12 9.08049C11.3089 9.08049 10.7214 8.87822 10.2376 8.47368C9.75378 8.06914 9.51188 7.57791 9.51188 7C9.51188 6.42208 9.75378 5.93086 10.2376 5.52632C10.7214 5.12177 11.3089 4.9195 12 4.9195C12.6911 4.9195 13.2786 5.12177 13.7624 5.52632C14.2462 5.93086 14.4881 6.42208 14.4881 7C14.4881 7.57791 14.2462 8.06914 13.7624 8.47368C13.2786 8.87822 12.6911 9.08049 12 9.08049ZM12 14C9.33909 14 6.93736 13.3498 4.79482 12.0495C2.65227 10.7492 1.054 9.06605 0 7C1.054 4.93395 2.65227 3.25077 4.79482 1.95046C6.93736 0.650155 9.33909 0 12 0C14.6609 0 17.0626 0.650155 19.2052 1.95046C21.3477 3.25077 22.946 4.93395 24 7C22.946 9.06605 21.3477 10.7492 19.2052 12.0495C17.0626 13.3498 14.6609 14 12 14Z" fill="#30363D"/>
</svg>
